<?xml version="1.0" standalone="no"?>
<!DOCTYPE svg PUBLIC "-//W3C//DTD SVG 20010904//EN"
 "http://www.w3.org/TR/2001/REC-SVG-20010904/DTD/svg10.dtd">
<svg version="1.0" xmlns="http://www.w3.org/2000/svg"
 width="360.000000pt" height="360.000000pt" viewBox="0 0 360.000000 360.000000"
 preserveAspectRatio="xMidYMid meet">
<metadata>
Created by potrace 1.14, written by Peter Selinger 2001-2017
</metadata>
<g transform="translate(0.000000,360.000000) scale(0.100000,-0.100000)"
fill="#000000" stroke="none">
<path d="M950 3015 c0 -4 118 -277 205 -475 74 -168 353 -810 432 -995 l34
-80 -6 -325 -7 -325 -116 -118 -117 -117 425 0 425 0 -118 118 -117 117 0 264
0 264 -81 251 c-78 239 -106 315 -197 521 -49 113 -148 340 -241 554 l-71 165
47 50 c27 28 66 70 88 94 l39 42 -312 0 c-172 0 -312 -2 -312 -5z"/>
<path d="M2036 3008 c5 -7 45 -54 91 -105 46 -51 83 -95 83 -98 0 -5 -147
-359 -287 -690 -50 -118 -54 -133 -43 -160 6 -16 44 -130 83 -252 40 -123 74
-223 77 -223 3 1 32 69 64 153 69 177 473 1198 516 1304 17 40 30 75 30 78 0
3 -140 5 -311 5 -245 0 -309 -3 -303 -12z"/>
</g>
</svg>
